{
	"buffers":[{
		"uri":"data:application/octet-stream;base64,",
		"byteLength":48348
	},
	{
		"uri":"data:application/octet-stream;base64,",
		"byteLength":48960
	},
	{
		"uri":"data:application/octet-stream;base64,",
		"byteLength":48960
	},
	{
		"uri":"data:application/octet-stream;base64,",
		"byteLength":48960
	},
	{
		"uri":"data:application/octet-stream;base64,",
		"byteLength":48960
	}],
	"asset":{
		"version":"2.0",
		"generator":"Maxon Cinema 4D 2025.2.0 (#200000219)"
	},
	"scenes":[{
		"nodes":[0,
		1]
	}],
	"nodes":[{
		"name":"Car Body",
		"mesh":0,
		"translation":[0.14994965493679048,
		1.0,
		0.0],
		"rotation":[0.0,
		0.0,
		0.0,
		-1.0],
		"scale":[1.0,
		1.0,
		1.0]
	},
	{
		"name":"Wheels_grp",
		"translation":[0.63994961977005,
		-2.6769355985230038e-19,
		0.0],
		"rotation":[0.0,
		0.0,
		0.0,
		-1.0],
		"scale":[1.0,
		1.0,
		1.0],
		"children":[2,
		3,
		4,
		5]
	},
	{
		"name":"wheel_dr",
		"mesh":1,
		"translation":[-2.166839599609375,
		-4.086077342259639e-17,
		-0.75],
		"rotation":[0.7071067690849304,
		0.0,
		0.0,
		-0.7071067690849304],
		"scale":[1.0,
		0.5735641121864319,
		1.0]
	},
	{
		"name":"wheel_df",
		"mesh":2,
		"translation":[2.166839838027954,
		-4.086077342259639e-17,
		-0.75],
		"rotation":[0.7071067690849304,
		0.0,
		0.0,
		-0.7071067690849304],
		"scale":[1.0,
		0.5735641121864319,
		1.0]
	},
	{
		"name":"wheel_pr",
		"mesh":3,
		"translation":[-2.166840076446533,
		4.673623731356055e-17,
		0.75],
		"rotation":[-0.7071067690849304,
		0.0,
		0.0,
		-0.7071067690849304],
		"scale":[1.0,
		0.5735641121864319,
		1.0]
	},
	{
		"name":"wheel_pf",
		"mesh":4,
		"translation":[2.166839838027954,
		4.673623731356055e-17,
		0.75],
		"rotation":[-0.7071067690849304,
		0.0,
		0.0,
		-0.7071067690849304],
		"scale":[1.0,
		0.5735641121864319,
		1.0]
	}],
	"meshes":[{
		"primitives":[{
			"attributes":{
				"POSITION":1,
				"NORMAL":2,
				"TEXCOORD_0":3
			},
			"indices":0
		}],
		"name":"Car Body"
	},
	{
		"primitives":[{
			"attributes":{
				"POSITION":5,
				"NORMAL":6,
				"TEXCOORD_0":7
			},
			"indices":4
		}],
		"name":"wheel_dr"
	},
	{
		"primitives":[{
			"attributes":{
				"POSITION":9,
				"NORMAL":10,
				"TEXCOORD_0":11
			},
			"indices":8
		}],
		"name":"wheel_df"
	},
	{
		"primitives":[{
			"attributes":{
				"POSITION":13,
				"NORMAL":14,
				"TEXCOORD_0":15
			},
			"indices":12
		}],
		"name":"wheel_pr"
	},
	{
		"primitives":[{
			"attributes":{
				"POSITION":17,
				"NORMAL":18,
				"TEXCOORD_0":19
			},
			"indices":16
		}],
		"name":"wheel_pf"
	}],
	"accessors":[{
		"bufferView":0,
		"type":"SCALAR",
		"componentType":5123,
		"max":[1421],
		"count":1422,
		"byteOffset":0,
		"min":[0]
	},
	{
		"bufferView":1,
		"type":"VEC3",
		"componentType":5126,
		"max":[4.184144496917725,
		0.7635770440101624,
		1.1154377460479737],
		"count":1422,
		"byteOffset":0,
		"min":[-3.0758748054504396,
		-1.1168293952941895,
		-1.1353843212127686]
	},
	{
		"bufferView":1,
		"type":"VEC3",
		"componentType":5126,
		"max":[0.9985902309417725,
		0.999965250492096,
		1.0],
		"count":1422,
		"byteOffset":12,
		"min":[-0.9994941353797913,
		-1.0,
		-1.0]
	},
	{
		"bufferView":1,
		"type":"VEC2",
		"componentType":5126,
		"max":[1.047773838043213,
		1.036775827407837],
		"count":1422,
		"byteOffset":24,
		"min":[-0.04948251694440842,
		-0.03801541030406952]
	},
	{
		"bufferView":2,
		"type":"SCALAR",
		"componentType":5123,
		"max":[1439],
		"count":1440,
		"byteOffset":0,
		"min":[0]
	},
	{
		"bufferView":3,
		"type":"VEC3",
		"componentType":5126,
		"max":[0.5,
		0.2893308103084564,
		0.5],
		"count":1440,
		"byteOffset":0,
		"min":[-0.5,
		-0.3449999988079071,
		-0.5]
	},
	{
		"bufferView":3,
		"type":"VEC3",
		"componentType":5126,
		"max":[1.0,
		1.0,
		1.0],
		"count":1440,
		"byteOffset":12,
		"min":[-1.0,
		-1.0,
		-1.0]
	},
	{
		"bufferView":3,
		"type":"VEC2",
		"componentType":5126,
		"max":[1.0,
		1.0],
		"count":1440,
		"byteOffset":24,
		"min":[0.0,
		0.0]
	},
	{
		"bufferView":4,
		"type":"SCALAR",
		"componentType":5123,
		"max":[1439],
		"count":1440,
		"byteOffset":0,
		"min":[0]
	},
	{
		"bufferView":5,
		"type":"VEC3",
		"componentType":5126,
		"max":[0.5,
		0.2893308103084564,
		0.5],
		"count":1440,
		"byteOffset":0,
		"min":[-0.5,
		-0.3449999988079071,
		-0.5]
	},
	{
		"bufferView":5,
		"type":"VEC3",
		"componentType":5126,
		"max":[1.0,
		1.0,
		1.0],
		"count":1440,
		"byteOffset":12,
		"min":[-1.0,
		-1.0,
		-1.0]
	},
	{
		"bufferView":5,
		"type":"VEC2",
		"componentType":5126,
		"max":[1.0,
		1.0],
		"count":1440,
		"byteOffset":24,
		"min":[0.0,
		0.0]
	},
	{
		"bufferView":6,
		"type":"SCALAR",
		"componentType":5123,
		"max":[1439],
		"count":1440,
		"byteOffset":0,
		"min":[0]
	},
	{
		"bufferView":7,
		"type":"VEC3",
		"componentType":5126,
		"max":[0.5,
		0.2893308103084564,
		0.5],
		"count":1440,
		"byteOffset":0,
		"min":[-0.5,
		-0.3449999988079071,
		-0.5]
	},
	{
		"bufferView":7,
		"type":"VEC3",
		"componentType":5126,
		"max":[1.0,
		1.0,
		1.0],
		"count":1440,
		"byteOffset":12,
		"min":[-1.0,
		-1.0,
		-1.0]
	},
	{
		"bufferView":7,
		"type":"VEC2",
		"componentType":5126,
		"max":[1.0,
		1.0],
		"count":1440,
		"byteOffset":24,
		"min":[0.0,
		0.0]
	},
	{
		"bufferView":8,
		"type":"SCALAR",
		"componentType":5123,
		"max":[1439],
		"count":1440,
		"byteOffset":0,
		"min":[0]
	},
	{
		"bufferView":9,
		"type":"VEC3",
		"componentType":5126,
		"max":[0.5,
		0.2893308103084564,
		0.5],
		"count":1440,
		"byteOffset":0,
		"min":[-0.5,
		-0.3449999988079071,
		-0.5]
	},
	{
		"bufferView":9,
		"type":"VEC3",
		"componentType":5126,
		"max":[1.0,
		1.0,
		1.0],
		"count":1440,
		"byteOffset":12,
		"min":[-1.0,
		-1.0,
		-1.0]
	},
	{
		"bufferView":9,
		"type":"VEC2",
		"componentType":5126,
		"max":[1.0,
		1.0],
		"count":1440,
		"byteOffset":24,
		"min":[0.0,
		0.0]
	}],
	"bufferViews":[{
		"buffer":0,
		"byteOffset":0,
		"byteLength":2844,
		"target":34963
	},
	{
		"buffer":0,
		"byteOffset":2844,
		"byteLength":45504,
		"target":34962,
		"byteStride":32
	},
	{
		"buffer":1,
		"byteOffset":0,
		"byteLength":2880,
		"target":34963
	},
	{
		"buffer":1,
		"byteOffset":2880,
		"byteLength":46080,
		"target":34962,
		"byteStride":32
	},
	{
		"buffer":2,
		"byteOffset":0,
		"byteLength":2880,
		"target":34963
	},
	{
		"buffer":2,
		"byteOffset":2880,
		"byteLength":46080,
		"target":34962,
		"byteStride":32
	},
	{
		"buffer":3,
		"byteOffset":0,
		"byteLength":2880,
		"target":34963
	},
	{
		"buffer":3,
		"byteOffset":2880,
		"byteLength":46080,
		"target":34962,
		"byteStride":32
	},
	{
		"buffer":4,
		"byteOffset":0,
		"byteLength":2880,
		"target":34963
	},
	{
		"buffer":4,
		"byteOffset":2880,
		"byteLength":46080,
		"target":34962,
		"byteStride":32
	}]
}